PathFileType	4	(X/Y/Z)	Patient4_TMGait_0pt7_01_right_29.trc.trc
DataRate	CameraRate	NumFrames	NumMarkers	Units	OrigDataRate	OrigDataStartFrame	OrigNumFrames
85.365853658537	85.365853658537	4	33	mm	85.365853658537	124	       141
Frame#	Time	Sacral			L.Shoulder			Chest			R.Shoulder			Neck			R.ASIS			L.ASIS			R.Thigh.Superior			R.Thigh.Lateral			R.Thigh.Inferior			R.Patella			L.Thigh.Superior			L.Thigh.Lateral			L.Thigh.Inferior			L.Patella			L.Shank.Superior			L.Shank.Lateral			L.Shank.Inferior			R.Shank.Superior			R.Shank.Lateral			R.Shank.Inferior			R.Heel			R.Midfoot.Superior			R.Midfoot.Lateral			R.Toe			L.Heel			L.Midfoot.Lateral			L.Midfoot.Superior			L.Toe			L.Elbow			L.Wrist			R.Elbow			R.Wrist			
		X1	Y1	Z1	X2	Y2	Z2	X3	Y3	Z3	X4	Y4	Z4	X5	Y5	Z5	X6	Y6	Z6	X7	Y7	Z7	X8	Y8	Z8	X9	Y9	Z9	X10	Y10	Z10	X11	Y11	Z11	X12	Y12	Z12	X13	Y13	Z13	X14	Y14	Z14	X15	Y15	Z15	X16	Y16	Z16	X17	Y17	Z17	X18	Y18	Z18	X19	Y19	Z19	X20	Y20	Z20	X21	Y21	Z21	X22	Y22	Z22	X23	Y23	Z23	X24	Y24	Z24	X25	Y25	Z25	X26	Y26	Z26	X27	Y27	Z27	X28	Y28	Z28	X29	Y29	Z29	X30	Y30	Z30	X31	Y31	Z31	X32	Y32	Z32	X33	Y33	Z33	

124	34.300857142857	788.672400916865	990.419514417139	471.483583011627	960.340845127468	1402.324053863203	259.182359146765	1049.955315753270	1358.535413965124	437.239181634454	947.014736680168	1451.060706219414	591.340640167830	947.021707167314	1482.409022729976	405.730521503392	1009.908740070143	938.465132006142	603.339791450929	1015.283907538434	957.732818287161	327.120596165918	1089.868268315326	760.925130073480	583.389119308768	1034.769533946274	635.225625061785	644.756526809635	1130.090615367259	601.156840849453	573.647184964785	1155.448709721365	513.849375238840	584.785317385975	1014.779511624560	731.373364561067	354.245216738671	896.857817763108	636.186232293395	292.108081361372	956.015502472135	542.625736881168	356.166484891444	939.449328054461	475.550025363870	366.021772200440	905.238468333246	409.098352852842	358.107269038723	799.234211132770	305.963571255228	313.026393819546	842.242072223113	190.387408639992	384.118369987407	1136.157169549506	422.319242830419	592.878331327920	1072.762215485998	312.221952233894	652.238425579457	1135.451505344707	222.255968501433	600.582796121733	1029.059151423474	44.699200305591	572.531645592659	1196.678042866404	106.941584581478	608.813649511483	1113.527085264490	39.242185205142	644.592917600531	1318.360586017902	64.212056605528	634.100484377681	704.605338460033	38.312006976311	432.907277583888	778.034055603677	34.782199538157	351.925153247309	861.351435047898	96.485939966250	376.913387355000	989.047753616098	46.425520867264	350.074674719408	1048.500457125808	1071.254015980045	138.767902057587	1303.269398186861	1025.029248080579	155.121109696417	771.229563681483	1182.684870706018	741.245724219699	708.104152060826	932.657321555976	791.287496307281	
125	34.312571428571	789.192123190594	989.737976615640	473.868276809527	959.820991582496	1401.854061860826	261.477165322970	1050.030258947210	1358.017955589468	439.271139069770	947.127229443989	1450.262933592601	593.730947473548	946.821113216580	1481.809619187523	408.161650900306	1011.089800090921	937.453139187510	604.636245102056	1015.538339794184	956.996194283945	328.532246294854	1090.204873371055	757.858658244567	582.877511064415	1033.043354172597	633.093177196193	643.675291448728	1127.247329067322	598.059585222878	571.613994475412	1151.227227528731	510.199782440282	581.951919547733	1014.245652541475	730.174447791769	355.102284470174	895.298471003919	635.579522062755	293.666369124637	954.367885140726	541.467161138349	357.216177535297	937.378583773778	473.861436439387	367.099826216222	902.062318305100	407.981045525698	359.059003508953	794.407180669755	306.550886047017	313.903913661807	835.729617443420	190.058084854009	384.446795369684	1130.915359887955	418.765740392700	590.346021193275	1066.560781920691	309.264949676157	649.844654043302	1127.479352965017	218.649019421566	597.284028000666	1017.901023673020	43.496327306011	570.081421380178	1186.663379144751	103.451412570395	604.739529477373	1102.649387449490	37.607302306926	641.934732296013	1308.113600934707	58.636130329279	629.767358745617	696.351357430687	38.956848973618	432.732553476373	769.880886721130	34.983588618874	351.929037033513	853.474316005334	96.416204431200	376.907896711305	981.008414385149	45.648178579957	349.997385545698	1044.102557711835	1069.335136340054	141.244955834677	1299.377843908316	1028.979253267673	159.672151531416	770.526045393668	1182.019737461111	742.549170211569	707.498320697005	931.667940541118	791.853599686151	
126	34.324285714286	789.608342440056	989.435374158029	476.221894047427	959.448180455620	1401.710243241789	263.849106165620	1050.290735922954	1357.679511176542	441.325961219215	947.523328754801	1449.609597908236	596.243292578373	946.861985803155	1481.508767718742	410.720815256946	1012.147540961694	936.749384913532	605.947842420452	1015.588789008184	956.397151574924	330.030025229327	1090.126929154411	755.215177384592	582.377368711786	1031.296444111674	631.582482038109	643.059815978284	1124.213817623107	595.533223397398	569.855357825180	1147.014441500362	507.254569030655	579.666275478214	1013.802465186521	729.263503676524	356.045459026605	893.964252481543	635.099343361342	295.361795845171	953.210333961183	540.483393108396	358.285357306295	935.903429158433	472.207479031466	368.087005271167	899.267219087644	406.991112270846	360.006505781331	789.805763164295	307.442387074405	314.909137514634	829.387475177894	189.944167747456	384.748119186917	1125.820233833024	415.915049395571	588.432833695991	1060.744331510544	306.982669615260	648.267460697925	1119.926540461373	215.766813386654	594.803801082550	1007.469396069787	42.677876744720	568.490336885140	1177.128144236423	100.927433460276	601.789214664739	1092.426563651199	36.579765578457	640.212566534873	1298.418123241345	54.311858156440	626.643927967314	688.133672535543	40.015293159320	432.567405782091	761.773916873406	35.357551353680	351.953235276238	845.760710592468	96.438310816896	376.840732516420	973.038235683168	44.724152490843	349.907090661700	1039.219587038273	1067.516619477060	143.895861445138	1294.770656874493	1031.819307757790	164.220465671360	771.006948064861	1180.654347705372	743.961894755143	708.592079431672	929.766637487981	792.385668218353	
127	34.336000000000	789.900287909170	989.551045655916	478.524174093443	959.238128016730	1401.948815121459	266.272572347984	1050.715330494095	1357.559259055066	443.385830697922	948.195965082768	1449.159326659227	598.841221003498	947.147706041079	1481.546818217032	413.374236936533	1013.007364101216	936.418048638710	607.317953052850	1015.377866277555	955.969227779680	331.633181041321	1089.624342471154	753.147300581311	582.018600054112	1029.562198947441	630.740657368455	642.973721611502	1121.074788339442	593.654436622759	568.530846236792	1142.825963423135	505.062376030251	578.082995326051	1013.458542688085	728.707248930070	357.090555724840	892.932913904246	634.770097231773	297.166122555842	952.663555351214	539.716873640118	359.335421075781	935.174842723238	470.623961281208	368.893960304324	896.967334540937	406.157090408821	360.889103667848	785.524290836300	308.699335399004	316.018777922811	823.293080037479	190.104407628842	384.989532105626	1120.899543495265	413.808308027587	587.197786349511	1055.330716486307	305.406109559947	647.525423471462	1112.816617050565	213.645811084965	593.148334810175	997.835815710950	42.209494364208	567.649157173978	1168.145272032248	99.305913200998	599.921654372406	1082.929355710140	36.066519725592	639.305731118278	1289.329902275885	51.240648281466	624.667921369111	679.992988105001	41.615911858609	432.419361254614	753.733275253357	35.966308922929	351.997816234733	838.263405053493	96.577524532993	376.685530261649	965.137838350267	43.678587775685	349.808288997502	1033.838066874051	1065.881041363017	146.721719155740	1289.487048130525	1033.481958794532	168.742340291161	772.718627606782	1178.639599900521	745.502601553133	711.472585732458	927.006212609510	792.829385581575	
